<svg width="256" height="256" viewBox="0 0 256 256" fill="none" xmlns="http://www.w3.org/2000/svg">
<rect width="256" height="256" rx="50" fill="white"/>
<path d="M59.8278 172.93C51.8897 181.75 52.8451 192.775 54.3152 197.185C58.7252 208.652 77.4679 213.944 97.3132 215.928C102.404 216.437 109.375 216.711 116.056 216.425C122.507 216.148 128.687 215.348 132.643 213.733C133.463 213.398 134.187 213.028 134.799 212.621C145.845 205.257 146.706 196.083 144.721 186.16C142.516 175.135 133.849 169.34 130.389 167.418C121.434 162.443 115.173 160.162 96.2106 160.574C93.638 165.06 87.3906 174.033 82.9805 174.033C81.878 173.298 78.5705 170.183 74.1604 163.602C68.3339 165.657 63.554 168.79 59.8278 172.93Z" fill="#FEE3A0"/>
<path d="M211.981 132.137C237.339 115.599 249.466 90.2416 250.569 80.319C243.954 88.0366 237.339 91.0341 229.621 94.6516C194.341 111.189 187.726 128.462 178.906 143.162C195.444 137.65 202.059 137.65 211.981 132.137Z" fill="#FEE3A0"/>
<path d="M53.2127 135.445C53.8427 126.625 56.7407 111.631 66.4428 100.164C66.0563 99.8328 65.638 99.4641 65.1946 99.0617C61.7832 99.9439 57.0053 99.3794 55.4177 99.0619C44.3926 96.8569 41.4526 93.9169 37.7775 92.4468C24.5474 87.1548 10.2147 89.1393 8.0097 90.2418C21.2398 91.3443 24.0067 100.875 24.5474 108.984C26.1644 133.24 41.0851 143.162 52.8775 146.47C52.8246 143.187 52.9212 139.526 53.2127 135.445Z" fill="#BD8138"/>
<path d="M89.5956 160.803C83.8237 161.065 78.6776 162.009 74.1604 163.602C78.5705 170.183 81.878 173.298 82.9805 174.033C87.3906 174.033 93.6381 165.061 96.2107 160.574C94.1607 160.619 91.962 160.695 89.5956 160.803Z" fill="black"/>
<path d="M170.086 93.5491C173.394 92.8142 180.67 90.4621 183.316 86.9341C183.992 86.7839 184.73 86.6265 185.521 86.4644C172.285 70.0819 166.036 53.4914 164.566 47.2436C162.802 40.1876 160.156 39.1586 159.054 39.5261C157.29 40.4082 156.849 42.8338 156.849 43.9363C156.849 48.9673 157.581 53.4369 158.598 57.1665C157.199 53.6384 154.644 53.4914 153.541 53.8589C150.895 54.7409 151.704 61.5765 152.439 64.8841C154.203 71.9401 160.529 81.3924 163.471 85.2364C166.274 88.3757 168.848 91.4855 170.086 93.5491Z" fill="#FEE3A0"/>
<path d="M70.8599 93.5491C71.0881 92.4082 72.818 90.2189 77.475 87.8785C63.3628 74.7749 59.0996 59.7388 58.7323 53.8587C58.7323 49.4486 55.7921 48.3461 54.3222 48.3461C49.9122 48.3461 49.5446 54.2263 49.9122 57.1662C50.3982 62.0457 52.9322 67.6002 55.7215 72.3361C55.9976 72.7522 56.2737 73.2071 56.5475 73.7039C56.271 73.2567 55.995 72.8003 55.7215 72.3361C53.311 68.7034 50.9 68.0321 49.9122 68.1913C48.1446 69.0734 48.4377 73.7039 48.8053 75.9089C50.4348 84.0662 59.7358 94.1096 65.1946 99.0617C65.638 99.4641 66.0563 99.8328 66.4428 100.164C67.5453 98.6943 70.5631 95.0929 73.8138 92.4466C72.8365 92.7454 71.8489 93.1097 70.8599 93.5491Z" fill="#FEE3A0"/>
<path d="M163.471 208.21L163.037 207.197L162.555 207.404L162.411 207.907L163.471 208.21ZM250.569 80.319L251.665 80.4407L252 77.4309L249.808 79.5212L250.569 80.319ZM178.906 143.162L177.961 142.595L176.427 145.151L179.255 144.208L178.906 143.162ZM229.621 83.6266L229.848 82.5474L229.837 82.5454L229.621 83.6266ZM183.316 86.9341L183.077 85.8578L182.679 85.9462L182.434 86.2726L183.316 86.9341ZM170.086 93.5492L169.141 94.1165L169.549 94.7979L170.325 94.6254L170.086 93.5492ZM154.651 75.909L155.43 75.1293L155.18 74.8794L154.832 74.8215L154.651 75.909ZM98.4228 75.909L98.2064 76.9901L98.3632 77.0214L98.5224 77.0069L98.4228 75.909ZM67.5524 60.4738L68.1639 59.5565L65.6682 57.8928L66.4922 60.7768L67.5524 60.4738ZM89.6027 83.6266L89.8699 84.6962L93.0061 83.9121L90.0445 82.6164L89.6027 83.6266ZM70.8599 93.5492L69.7788 93.3329L69.361 95.4219L71.3076 94.5566L70.8599 93.5492ZM89.6027 92.4467L90.4496 93.1525L91.4436 91.9596L89.9896 91.4145L89.6027 92.4467ZM82.9876 115.599L81.9801 116.047L83.3885 119.216L84.0687 115.816L82.9876 115.599ZM102.079 100.108C102.657 99.9151 102.969 99.2908 102.776 98.7131C102.584 98.1354 101.959 97.8234 101.382 98.0159L102.079 100.108ZM58.7323 53.8587H57.6298V53.8931L57.632 53.9275L58.7323 53.8587ZM49.9122 57.1663L51.0097 57.0569L51.0061 57.0296L49.9122 57.1663ZM61.1885 82.1274C61.5783 82.595 62.2736 82.6583 62.7413 82.2685C63.209 81.8786 63.2722 81.1836 62.8824 80.7157L61.1885 82.1274ZM49.9122 68.1914L49.7367 67.103L49.5704 67.1297L49.4198 67.2049L49.9122 68.1914ZM48.8053 75.909L47.7178 76.0902L47.7206 76.1076L47.7242 76.1248L48.8053 75.909ZM66.4428 100.164L67.2845 100.876L67.3054 100.852L67.3249 100.826L66.4428 100.164ZM164.566 47.2437L165.64 46.9912L165.636 46.9764L164.566 47.2437ZM159.054 39.5261L158.705 38.4802L158.631 38.505L158.561 38.54L159.054 39.5261ZM162.582 68.8531C162.947 69.3402 163.638 69.439 164.125 69.0736C164.612 68.7082 164.711 68.0172 164.346 67.5301L162.582 68.8531ZM152.439 64.8841L151.362 65.1233L151.369 65.1515L152.439 64.8841ZM54.3152 197.185L53.2694 197.534L53.2771 197.558L53.2861 197.581L54.3152 197.185ZM81.878 188.365C81.878 188.974 82.3717 189.468 82.9805 189.468C83.5893 189.468 84.083 188.974 84.083 188.365H81.878ZM144.902 214.811C145.503 214.711 145.909 214.143 145.809 213.542C145.709 212.941 145.141 212.536 144.54 212.636L144.902 214.811ZM8.00971 90.2419L7.51665 89.2558L4.00003 91.014L7.91815 91.3406L8.00971 90.2419ZM163.905 209.224C207.7 190.455 214.949 149.983 213.078 132.023L210.885 132.251C210.94 132.781 210.987 133.332 211.025 133.902C212.227 151.96 204.374 189.481 163.037 207.197L163.905 209.224ZM212.584 133.061C225.409 124.696 234.882 114.106 241.292 104.353C247.68 94.6314 251.087 85.6428 251.665 80.4407L249.473 80.1973C248.948 84.9178 245.74 93.5697 239.449 103.142C233.18 112.683 223.912 123.04 211.379 131.214L212.584 133.061ZM249.733 79.6015C248.089 81.5197 246.447 83.1381 244.784 84.545C240.059 88.5438 235.172 90.8338 229.609 93.44C229.458 93.5109 229.306 93.582 229.154 93.6535L230.089 95.6499C237.802 92.0343 244.62 88.9532 251.407 81.0365L249.733 79.6015ZM229.154 93.6535C211.397 101.977 200.792 110.516 193.51 118.872C186.259 127.192 182.316 135.336 177.961 142.595L179.851 143.729C184.316 136.288 188.091 128.446 195.172 120.32C202.223 112.23 212.566 103.864 230.089 95.6499L229.154 93.6535ZM179.255 144.208C187.488 141.464 193.222 140.1 198.219 138.712C202.723 137.461 206.598 136.197 211.025 133.902C211.515 133.648 212.012 133.381 212.517 133.101L211.446 131.173C206.592 133.87 202.55 135.221 197.629 136.587C192.704 137.955 186.862 139.348 178.557 142.116L179.255 144.208ZM249.808 79.5212C247.438 81.7838 243.705 82.8286 239.813 83.1426C235.956 83.4537 232.15 83.0297 229.848 82.5474L229.396 84.7057C231.87 85.2243 235.892 85.6711 239.991 85.3403C241.58 85.2122 243.211 84.9648 244.784 84.545C247.239 83.8899 249.55 82.8147 251.33 81.1168L249.808 79.5212ZM182.434 86.2726C181.292 87.7956 179.038 89.1722 176.507 90.2789C174.018 91.3673 171.441 92.1185 169.847 92.4729L170.325 94.6254C172.038 94.2446 174.753 93.4524 177.391 92.2991C179.842 91.2274 182.393 89.7734 183.936 87.9264C184.027 87.8175 184.114 87.7072 184.198 87.5956L182.434 86.2726ZM154.832 74.8215C138.799 72.1494 110.445 73.709 98.3229 74.8111L98.5224 77.0069C110.567 75.912 138.338 74.3989 154.121 76.9395C154.238 76.9582 154.354 76.9773 154.47 76.9965L154.832 74.8215ZM98.6388 74.8279C94.4023 73.9805 88.4635 71.2956 82.6795 68.2108C76.9275 65.1432 71.4458 61.7443 68.1639 59.5565L66.9407 61.3911C67.7379 61.9226 68.6615 62.5235 69.6852 63.1728C72.9416 65.2384 77.2105 67.7932 81.6418 70.1565C87.4342 73.2457 93.6231 76.0735 98.2064 76.9901L98.6388 74.8279ZM66.4922 60.7768C68.3323 67.2172 72.5296 72.5293 76.9557 76.5337C81.3843 80.54 86.1163 83.3048 89.1608 84.6367L90.0445 82.6164C87.2087 81.3759 82.6798 78.7385 78.4351 74.8984C74.9283 71.7259 71.6659 67.7785 69.6852 63.1728C69.2673 62.2012 68.9064 61.2002 68.6124 60.1711L66.4922 60.7768ZM88.7557 91.7408C88.3964 92.172 88.0523 92.6014 87.7228 93.0287C79.763 103.353 80.3779 112.442 81.9801 116.047L83.995 115.152C83.6539 114.384 83.3415 113.187 83.233 111.648C82.9373 107.45 84.1582 100.702 90.4496 93.1525L88.7557 91.7408ZM84.0687 115.816C84.8715 111.801 87.9204 108.336 91.6101 105.597C95.2779 102.876 99.4146 100.996 102.079 100.108L101.382 98.0159C98.5334 98.9651 94.1805 100.944 90.2961 103.827C87.4906 105.909 84.8411 108.528 83.233 111.648C82.6273 112.823 82.1694 114.069 81.9064 115.383L84.0687 115.816ZM229.837 82.5454C223.512 81.2802 215.063 81.4489 206.908 82.1917C198.729 82.9368 190.745 84.2695 185.3 85.3844L185.742 87.5444C191.123 86.4428 199.025 85.124 207.108 84.3877C215.215 83.6493 223.403 83.507 229.405 84.7077L229.837 82.5454ZM185.3 85.3844C184.503 85.5476 183.759 85.7061 183.077 85.8578L183.555 88.0104C183.68 87.9826 183.807 87.9546 183.936 87.9264C184.499 87.8032 185.103 87.6754 185.742 87.5444L185.3 85.3844ZM171.031 92.982C169.732 90.8169 167.091 87.6353 164.293 84.5022L162.648 85.9707C165.457 89.1162 167.963 92.154 169.141 94.1165L171.031 92.982ZM164.293 84.5022C161.09 80.9139 157.592 77.2913 155.43 75.1293L153.871 76.6887C153.953 76.7702 154.036 76.8538 154.121 76.9395C156.275 79.1019 159.599 82.5555 162.648 85.9707L164.293 84.5022ZM89.3352 82.5569C83.9252 83.9095 79.9111 85.4201 76.9798 86.8933L77.97 88.8635C80.7254 87.4787 84.5803 86.0186 89.8699 84.6962L89.3352 82.5569ZM76.9798 86.8933C74.5818 88.0986 72.8901 89.288 71.7508 90.3611C70.6416 91.4059 69.9588 92.4325 69.7788 93.3329L71.9411 93.7655C71.9891 93.5249 72.2855 92.8866 73.2625 91.9662C73.5219 91.7219 73.8229 91.4639 74.1696 91.1946C75.0889 90.4807 76.3298 89.6879 77.97 88.8635L76.9798 86.8933ZM78.2252 87.0706C64.3247 74.1635 60.1828 59.394 59.8326 53.7899L57.632 53.9275C58.0166 60.0835 62.401 75.3862 76.7249 88.6864L78.2252 87.0706ZM59.8348 53.8587C59.8348 51.3869 58.9991 49.6939 57.8161 48.6293C56.6682 47.5962 55.2916 47.2437 54.3223 47.2437V49.4487C54.8228 49.4487 55.6512 49.6474 56.341 50.2683C56.9954 50.8573 57.6298 51.9205 57.6298 53.8587H59.8348ZM54.3223 47.2437C52.9488 47.2437 51.8308 47.7113 50.9744 48.4996C50.1413 49.2666 49.6119 50.2826 49.2772 51.313C48.6124 53.3582 48.6227 55.7401 48.8181 57.303L51.0061 57.0296C50.8341 55.6525 50.8445 53.6243 51.3742 51.9946C51.6366 51.1873 52.003 50.5497 52.4676 50.1221C52.9088 49.7162 53.4905 49.4487 54.3223 49.4487V47.2437ZM55.6102 74.2841C57.6393 77.5632 59.712 80.3556 61.1885 82.1274L62.8824 80.7157C61.4736 79.0253 59.4611 76.3171 57.4851 73.1238L55.6102 74.2841ZM49.4198 67.2049C48.6146 67.6068 48.1647 68.3698 47.9057 69.0829C47.6406 69.8123 47.5123 70.6579 47.458 71.4815C47.3491 73.1346 47.5248 74.9326 47.7178 76.0902L49.8928 75.7277C49.7182 74.6803 49.5638 73.0605 49.6582 71.6266C49.7056 70.9069 49.8126 70.2915 49.9781 69.8359C50.1497 69.3636 50.3261 69.2172 50.4044 69.1779L49.4198 67.2049ZM186.379 85.7716C173.249 69.5199 167.073 53.0804 165.64 46.9912L163.493 47.4961C165.001 53.9022 171.322 70.644 184.664 87.1572L186.379 85.7716ZM165.636 46.9764C164.731 43.3569 163.566 41.1337 162.368 39.849C161.177 38.5724 159.813 38.1108 158.705 38.4802L159.402 40.5721C159.407 40.5704 159.523 40.537 159.759 40.622C159.993 40.7062 160.34 40.9073 160.756 41.3531C161.597 42.2551 162.638 44.0744 163.497 47.5111L165.636 46.9764ZM158.561 38.54C157.341 39.1501 156.646 40.2571 156.262 41.2506C155.875 42.2488 155.746 43.2682 155.746 43.9363H157.951C157.951 43.5019 158.043 42.7573 158.318 42.0466C158.595 41.3311 159.003 40.7842 159.547 40.5122L158.561 38.54ZM155.746 43.9363C155.746 49.0743 156.494 53.6415 157.534 57.4565L159.661 56.8765C158.668 53.2325 157.951 48.8604 157.951 43.9363H155.746ZM157.534 57.4565C159.042 62.9875 161.176 66.9791 162.582 68.8531L164.346 67.5301C163.138 65.9198 161.111 62.1942 159.661 56.8765L157.534 57.4565ZM159.623 56.7601C158.835 54.7743 157.665 53.6157 156.414 53.0479C155.194 52.4943 153.991 52.5467 153.193 52.8131L153.89 54.9048C154.194 54.8036 154.82 54.7458 155.503 55.0558C156.154 55.3515 156.961 56.0307 157.573 57.5729L159.623 56.7601ZM153.193 52.8131C152.066 53.1886 151.445 54.1591 151.108 55.1255C150.768 56.1017 150.639 57.2761 150.62 58.4439C150.581 60.7915 150.983 63.4186 151.362 65.1233L153.515 64.6448C153.159 63.042 152.79 60.5975 152.824 58.48C152.842 57.4152 152.961 56.5085 153.19 55.8516C153.423 55.1851 153.694 54.9703 153.89 54.9048L153.193 52.8131ZM151.369 65.1515C152.289 68.8328 154.375 73.0678 156.56 76.8196C158.755 80.5878 161.098 83.9503 162.595 85.9065L164.346 84.5663C162.901 82.6786 160.611 79.3929 158.466 75.7099C156.311 72.0107 154.352 67.9914 153.508 64.6166L151.369 65.1515ZM71.3076 94.5566C72.2542 94.1359 73.1999 93.7873 74.1362 93.5011L73.4914 91.3924C72.4734 91.7036 71.4434 92.0833 70.4121 92.5417L71.3076 94.5566ZM74.1362 93.5011C74.2051 93.48 74.2739 93.4593 74.3427 93.4389C79.7638 91.8322 84.8186 92.314 87.7228 93.0287C88.3147 93.1744 88.8173 93.3297 89.2154 93.479L89.9896 91.4145C87.3067 90.4083 81.0359 89.287 74.1696 91.1946C73.9441 91.2573 73.7181 91.3232 73.4914 91.3924L74.1362 93.5011ZM73.1179 91.5915C69.7735 94.3141 66.6949 97.9907 65.5608 99.5027L67.3249 100.826C68.3769 99.4232 71.2486 95.9957 74.3427 93.4389C74.3984 93.3929 74.4541 93.3472 74.5099 93.3018L73.1179 91.5915ZM65.6012 99.452C55.6808 111.176 52.7503 126.444 52.1131 135.366L54.3123 135.523C54.935 126.805 57.8007 112.085 67.2845 100.876L65.6012 99.452ZM59.0084 172.193C50.723 181.399 51.7179 192.88 53.2694 197.534L55.3611 196.837C53.9726 192.671 53.0564 182.102 60.6472 173.668L59.0084 172.193ZM53.2861 197.581C55.6603 203.754 61.8136 208.099 69.626 211.14C77.4755 214.195 87.2333 216.028 97.2034 217.025L97.423 214.831C87.5478 213.844 78.0117 212.038 70.426 209.085C62.8032 206.118 57.3802 202.083 55.3443 196.79L53.2861 197.581ZM135.41 213.538C135.654 213.376 135.893 213.212 136.127 213.048C141.379 209.366 144.33 205.202 145.702 200.669C147.125 195.966 146.81 190.985 145.802 185.944L143.64 186.377C144.616 191.258 144.864 195.826 143.591 200.031C142.328 204.204 139.531 208.14 134.187 211.703L135.41 213.538ZM145.802 185.944C143.5 174.434 134.471 168.424 130.924 166.454L129.853 168.382C133.226 170.256 141.532 175.837 143.64 186.377L145.802 185.944ZM89.5455 159.701C83.6848 159.968 78.4294 160.928 73.7937 162.562L74.5271 164.642C78.9259 163.091 83.9629 162.162 89.6457 161.904L89.5455 159.701ZM73.7937 162.562C68.2369 164.522 63.5802 167.447 59.8527 171.289C59.5658 171.585 59.2843 171.886 59.0084 172.193L60.6472 173.668C64.2396 169.676 68.8589 166.641 74.5271 164.642L73.7937 162.562ZM73.2445 164.216C77.6814 170.836 81.0857 174.095 82.3689 174.95L83.5922 173.115C82.6703 172.501 79.4595 169.529 75.0764 162.988L73.2445 164.216ZM130.924 166.454C126.407 163.945 122.498 162.074 117.295 160.9C112.114 159.731 105.705 159.265 96.1866 159.472L96.2347 161.677C105.679 161.471 111.882 161.939 116.81 163.051C121.717 164.158 125.415 165.916 129.853 168.382L130.924 166.454ZM96.1866 159.472C94.1267 159.517 91.9192 159.593 89.5455 159.701L89.6457 161.904C92.0048 161.797 94.1946 161.721 96.2347 161.677L96.1866 159.472ZM82.9805 175.135C84.4325 175.135 85.8839 174.411 87.1972 173.451C88.5354 172.472 89.8712 171.144 91.1171 169.709C93.6109 166.837 95.8559 163.409 97.167 161.123L95.2543 160.026C93.9928 162.226 91.8278 165.527 89.4523 168.263C88.2633 169.632 87.0497 170.827 85.8956 171.671C84.717 172.533 83.7335 172.93 82.9805 172.93V175.135ZM81.878 174.033V188.365H84.083V174.033H81.878ZM140.363 215.261C142.258 215.171 143.894 214.979 144.902 214.811L144.54 212.636C143.624 212.788 142.075 212.973 140.259 213.059L140.363 215.261ZM97.2034 217.025C102.344 217.539 109.368 217.815 116.103 217.526L116.009 215.323C109.382 215.607 102.464 215.335 97.423 214.831L97.2034 217.025ZM47.7242 76.1248C48.5905 80.4621 51.4546 85.1789 54.6921 89.362C57.9511 93.5734 61.6879 97.3692 64.4537 99.8783L65.9352 98.2452C63.2423 95.8023 59.5993 92.1002 56.4358 88.0126C53.2506 83.8969 50.6496 79.5133 49.8864 75.6931L47.7242 76.1248ZM64.4537 99.8783C64.9044 100.287 65.3302 100.663 65.7253 101.001L67.1604 99.3272C66.7822 99.0031 66.3718 98.6412 65.9352 98.2452L64.4537 99.8783ZM64.9185 97.9943C63.3642 98.3963 61.4401 98.4789 59.6648 98.4101C57.8995 98.3416 56.3663 98.1272 55.634 97.9808L55.2014 100.143C56.0567 100.314 57.7063 100.541 59.5795 100.613C61.4429 100.686 63.6136 100.609 65.4704 100.129L64.9185 97.9943ZM55.634 97.9808C44.7178 95.7976 42.1567 93.0111 38.187 91.4233L37.3681 93.4704C40.7484 94.8226 44.0674 97.9162 55.2014 100.143L55.634 97.9808ZM38.187 91.4233C31.4083 88.7118 24.372 87.8719 18.7647 87.8439C15.9577 87.8298 13.4934 88.0192 11.579 88.2851C9.71968 88.5433 8.24658 88.8908 7.51665 89.2558L8.50277 91.2279C8.87536 91.0416 10.0207 90.7276 11.8824 90.4692C13.6889 90.2183 16.0481 90.0355 18.7537 90.0489C24.1715 90.076 30.9166 90.8899 37.3681 93.4704L38.187 91.4233ZM7.91815 91.3406C14.2404 91.8674 17.9213 94.3774 20.1266 97.6073C22.3735 100.898 23.1815 105.071 23.4473 109.058L25.6475 108.911C25.3726 104.788 24.5269 100.141 21.9476 96.3639C19.3268 92.5254 15.0092 89.7188 8.10127 89.1431L7.91815 91.3406ZM52.1131 135.366C51.8194 139.477 51.7217 143.171 51.7752 146.488L53.98 146.452C53.9273 143.205 54.023 139.575 54.3123 135.523L52.1131 135.366ZM51.7752 146.488C52.0694 164.672 56.9191 171.581 59.0481 173.71L60.6075 172.151C60.4022 171.945 60.1452 171.663 59.8527 171.289C57.8644 168.748 54.2311 161.981 53.98 146.452L51.7752 146.488ZM23.4473 109.058C24.2712 121.415 28.495 130.201 34.0821 136.326C39.6569 142.436 46.5315 145.835 52.5799 147.531L53.1754 145.408C47.4311 143.797 40.9492 140.581 35.7112 134.84C30.4855 129.112 26.4406 120.809 25.6475 108.911L23.4473 109.058ZM140.259 213.059C138.956 213.121 137.536 213.131 136.127 213.048C135.008 212.982 133.897 212.857 132.856 212.651L132.429 214.815C135.027 215.327 137.94 215.376 140.363 215.261L140.259 213.059ZM132.226 212.712C128.459 214.25 122.444 215.047 116.009 215.323L116.103 217.526C122.57 217.249 128.915 216.446 133.06 214.754L132.226 212.712ZM133.06 214.754C133.93 214.398 134.723 213.996 135.41 213.538L134.187 211.703C133.652 212.06 132.996 212.398 132.226 212.712L133.06 214.754ZM132.377 214.804C132.395 214.808 132.412 214.811 132.429 214.815L132.856 212.651C132.841 212.648 132.825 212.645 132.81 212.642L132.377 214.804ZM48.815 57.2756C49.3255 62.399 51.96 68.1222 54.7717 72.8956L56.6715 71.7765C53.9044 67.0785 51.4714 61.6925 51.0097 57.0569L48.815 57.2756ZM54.803 72.9459C55.0616 73.3355 55.322 73.7644 55.5822 74.2362L57.5132 73.1717C57.2254 72.6497 56.9339 72.1688 56.6402 71.7265L54.803 72.9459ZM57.4851 73.1238C57.2126 72.6832 56.9407 72.2336 56.6715 71.7765L54.7717 72.8956C55.0493 73.3672 55.3293 73.8305 55.6102 74.2841L57.4851 73.1238ZM56.6402 71.7265C54.1141 67.9195 51.3356 66.8452 49.7367 67.103L50.0877 69.2798C50.4648 69.2192 52.508 69.4871 54.803 72.9459L56.6402 71.7265Z" fill="#293241"/>
<path d="M162.555 207.404L163.037 207.197C204.374 189.481 212.227 151.96 211.025 133.902C206.598 136.197 202.723 137.461 198.219 138.712C193.222 140.1 187.488 141.464 179.255 144.208L176.427 145.151L177.961 142.595C182.316 135.336 186.259 127.192 193.51 118.872C200.792 110.516 211.397 101.977 229.154 93.6535L229.609 93.44C235.172 90.8338 240.059 88.5438 244.784 84.545C243.211 84.9648 241.58 85.2122 239.991 85.3403C235.897 85.6707 231.88 85.2255 229.405 84.7077C223.403 83.507 215.215 83.6493 207.108 84.3877C199.025 85.124 191.123 86.4428 185.742 87.5444C185.103 87.6754 184.499 87.8032 183.936 87.9264C182.393 89.7734 179.842 91.2274 177.391 92.2991C174.753 93.4524 172.038 94.2446 170.325 94.6254L169.549 94.7979L169.141 94.1165C167.963 92.154 165.457 89.1162 162.648 85.9707C159.599 82.5555 156.275 79.1019 154.121 76.9395C138.338 74.3989 110.567 75.912 98.5224 77.0069L98.3632 77.0214L98.2064 76.9901C93.6231 76.0735 87.4342 73.2457 81.6418 70.1565C77.2105 67.7932 72.9416 65.2384 69.6852 63.1728C71.6659 67.7785 74.9283 71.7259 78.4351 74.8984C82.6798 78.7385 87.2087 81.3759 90.0445 82.6164L93.0061 83.9121L89.8699 84.6962C84.5803 86.0186 80.7254 87.4787 77.97 88.8635C76.3298 89.6879 75.0889 90.4807 74.1696 91.1946C81.0359 89.287 87.3067 90.4083 89.9896 91.4145L91.4436 91.9596L90.4496 93.1525C84.1582 100.702 82.9373 107.45 83.233 111.648C84.8411 108.528 87.4906 105.909 90.2961 103.827C94.1805 100.944 98.5334 98.9651 101.382 98.0159C101.959 97.8234 102.584 98.1354 102.776 98.7131C102.969 99.2908 102.657 99.9151 102.079 100.108C99.4146 100.996 95.2779 102.876 91.6101 105.597C87.9204 108.336 84.8715 111.801 84.0687 115.816L83.3885 119.216L81.9801 116.047C80.3779 112.442 79.763 103.353 87.7228 93.0287C84.8186 92.314 79.7638 91.8322 74.3427 93.4389C71.2486 95.9957 68.3769 99.4232 67.3249 100.826L67.3054 100.852L67.2845 100.876C57.8007 112.085 54.935 126.805 54.3123 135.523C54.023 139.575 53.9273 143.205 53.98 146.452C54.2311 161.981 57.8644 168.748 59.8527 171.289C63.5802 167.447 68.2369 164.522 73.7937 162.562C78.4294 160.928 83.6848 159.968 89.5455 159.701C91.9192 159.593 94.1267 159.517 96.1866 159.472C105.705 159.265 112.114 159.731 117.295 160.9C122.498 162.074 126.407 163.945 130.924 166.454C134.471 168.424 143.5 174.434 145.802 185.944C146.81 190.985 147.125 195.966 145.702 200.669C144.33 205.202 141.379 209.366 136.127 213.048C137.536 213.131 138.956 213.121 140.259 213.059C142.075 212.973 143.624 212.788 144.54 212.636C145.141 212.536 145.709 212.941 145.809 213.542C154.227 212.805 161.091 209.68 163.471 208.21L162.411 207.907L162.555 207.404Z" fill="#BD8138"/>
<path d="M119.962 205.94C117.432 204.359 113.121 201.772 107.834 198.774C105.266 197.318 102.468 195.765 99.533 194.184C96.8772 192.754 94.1088 191.3 91.2968 189.874C88.7433 188.579 86.1538 187.307 83.5792 186.095C82.6431 187.201 81.4906 188.623 80.2716 190.209C78.6359 192.337 76.881 194.763 75.3707 197.12C73.1457 200.594 71.4515 203.922 71.4515 205.94C72.5492 205.988 73.8671 206.038 75.3707 206.088C76.8386 206.136 78.4831 206.183 80.2716 206.226C83.5342 206.305 87.2757 206.371 91.2968 206.404C94.1218 206.427 97.0849 206.435 100.117 206.419C102.655 206.407 105.241 206.378 107.834 206.33C111.91 206.254 116.005 206.129 119.962 205.94Z" fill="white"/>
<path d="M175.088 153.02C174.353 154.857 173.324 160.738 175.088 169.558C173.62 172.13 169.363 177.937 164.071 180.583C165.908 183.156 170.906 188.301 176.198 188.301C176.566 185.728 178.622 179.481 183.908 175.071H190.523C192.361 173.233 195.374 168.676 192.728 165.148C191.258 164.78 187.436 164.487 183.908 166.251V156.327C183.173 154.49 180.38 151.256 175.088 153.02Z" fill="white"/>
<path d="M43.8969 117.74C50.8793 124.723 68.1522 138.467 81.3823 137.585C79.1773 143.098 76.3361 151.083 62.6396 149.713C58.9645 149.345 50.512 146.405 46.1019 137.585C44.6318 133.543 42.1329 123.914 43.8969 117.74Z" fill="white"/>
<path d="M105.638 132.073C130.334 133.837 162.228 116.637 175.088 107.817C181.108 121.048 178.119 128.765 176.198 130.97C152.384 158.312 130.26 157.063 122.175 153.02C110.048 146.956 104.535 140.893 105.638 132.073Z" fill="white"/>
<path d="M107.834 198.774C113.121 201.772 117.432 204.36 119.962 205.941C116.005 206.129 111.91 206.254 107.834 206.33M107.834 198.774V206.33M107.834 198.774C105.266 197.318 102.468 195.765 99.5329 194.184M107.834 206.33C105.241 206.378 102.655 206.407 100.117 206.419M99.5329 194.184L100.117 206.419M99.5329 194.184C96.8772 192.754 94.1088 191.3 91.2967 189.874M100.117 206.419C97.0847 206.435 94.1218 206.427 91.2967 206.404M91.2967 189.874C88.7433 188.579 86.1537 187.307 83.5792 186.095C82.6431 187.201 81.4906 188.623 80.2716 190.209M91.2967 189.874V206.404M91.2967 206.404C87.2757 206.371 83.5342 206.305 80.2716 206.226M80.2716 190.209C78.6359 192.337 76.881 194.763 75.3707 197.12M80.2716 190.209V206.226M80.2716 206.226C78.4831 206.183 76.8386 206.136 75.3707 206.088M75.3707 197.12C73.1457 200.594 71.4515 203.922 71.4515 205.941C72.5492 205.988 73.8671 206.038 75.3707 206.088M75.3707 197.12V206.088M183.908 156.327C183.173 154.49 180.38 151.256 175.088 153.02C174.353 154.857 173.324 160.738 175.088 169.558C173.62 172.13 169.363 177.937 164.071 180.583C165.908 183.156 170.906 188.301 176.198 188.301C176.566 185.728 178.622 179.481 183.908 175.071M183.908 156.327C183.908 162.502 183.908 165.516 183.908 166.251M183.908 156.327V166.251M183.908 175.071C184.646 175.071 187.001 175.071 190.523 175.071M183.908 175.071H190.523M183.908 166.251C187.436 164.486 191.258 164.78 192.728 165.148C195.374 168.676 192.36 173.233 190.523 175.071M126.585 114.432C114.237 125.899 100.86 128.765 95.715 128.765C93.0689 127.001 94.6124 120.68 95.715 117.74M78.0748 121.048C78.0748 125.458 78.0748 129.5 78.0748 130.97C71.0187 129.206 67.0496 123.62 65.9471 121.048M81.3823 137.585C68.1522 138.467 50.8793 124.723 43.8969 117.74C42.1329 123.914 44.6318 133.543 46.1019 137.585C50.512 146.405 58.9645 149.345 62.6396 149.713C76.3361 151.083 79.1773 143.098 81.3823 137.585ZM105.638 132.073C130.334 133.837 162.228 116.637 175.088 107.817C181.108 121.048 178.119 128.765 176.198 130.97C152.384 158.312 130.26 157.063 122.175 153.02C110.048 146.956 104.535 140.893 105.638 132.073Z" stroke="#293241" stroke-width="3"/>
</svg>
